:SAMPLES-PER-SECOND 30
:FULLY-SPECIFIED
:DEGREES
407
root  -4.23524 40.9989 0.324984 2.94049 -84.8307 0.385071
RightUpLeg  3.16213 -1.21353 -0.794986
RightLeg  -6.72409 -24.154 3.4524
RightFoot  1.04872 -0.245661 2.36164
RightToes  -3.13588e-008 1.75238e-005 3.56266e-009
Spine  5.49063 1.06348 2.93263
Spine1  -15.0304 1.28698 -4.809
HEad  -2.61806 -5.55277 7.04141
LeftShoulder1  0.0730888 2.91815 -4.52194
LeftArm  -88.6017 -35.1377 7.34989
LeftForeArm  21.575 -22.8881 -2.26192
LeftHand  -0.447586 -0.0888496 9.73636
RightShoulder  -0.139142 -4.9048 1.55052
RightArm  -94.8576 33.0583 -6.63855
RightForeArm  -2.91537 27.6532 5.98781
RightHand  -0.662209 6.32905 -6.88404
LeftUpLeg  1.30397 1.15771 3.50085
LeftLeg  -4.68811 10.2198 -1.06716
LeftFoot  1.30898 0.387929 -3.57154
LeftToes  4.76812e-008 1.47286e-008 1.3089e-009
408
root  -4.23382 41.0022 0.320094 2.18655 -84.8692 1.08282
RightUpLeg  3.18756 -1.29572 -0.875519
RightLeg  -6.64756 -24.0352 3.43764
RightFoot  1.04184 -0.247176 2.38135
RightToes  -3.13588e-008 1.75238e-005 3.56266e-009
Spine  4.91134 0.979815 1.81753
Spine1  -13.9119 1.15779 -3.34419
HEad  -4.00448 -5.57017 6.95943
LeftShoulder1  0.00860343 3.42658 -3.49752
LeftArm  -69.0852 -34.1833 8.54626
LeftForeArm  4.63255 -9.64128 5.04932
LeftHand  -0.410494 1.19866 11.0116
RightShoulder  -0.147508 -4.94634 1.93684
RightArm  -93.3884 32.3218 -7.04388
RightForeArm  -2.31427 22.7641 4.85777
RightHand  -0.682437 6.41451 -7.03373
LeftUpLeg  1.48332 1.08836 3.42579
LeftLeg  -4.92749 10.3408 -1.08802
LeftFoot  1.42006 0.395445 -3.61325
LeftToes  4.76812e-008 1.47286e-008 1.3089e-009
409
root  -4.22158 40.9994 0.320184 1.65195 -85.0866 1.77829
RightUpLeg  2.82946 -1.32866 -0.956192
RightLeg  -6.30967 -23.797 3.29303
RightFoot  0.924095 -0.250729 2.43245
RightToes  -3.13588e-008 1.75238e-005 3.56266e-009
Spine  4.40716 1.17842 0.315117
Spine1  -13.0092 1.23189 -1.0971
HEad  -5.23826 -5.30699 6.328
LeftShoulder1  -0.0284813 3.75097 -3.5965
LeftArm  -64.923 -32.6978 7.77905
LeftForeArm  2.70483 -2.64776 4.54492
LeftHand  -0.211766 2.4349 8.16186
RightShoulder  -0.133131 -4.75547 2.41982
RightArm  -89.9428 30.8279 -5.95218
RightForeArm  -5.75917 24.8687 5.63246
RightHand  -0.694958 6.59569 -7.0498
LeftUpLeg  1.4713 0.969214 3.32194
LeftLeg  -5.22417 10.6921 -1.12049
LeftFoot  1.52039 0.410681 -3.72669
LeftToes  4.76812e-008 1.47286e-008 1.3089e-009
410
root  -4.19497 40.9915 0.328849 2.49826 -85.2566 0.963043
RightUpLeg  2.74608 -1.24634 -0.883034
RightLeg  -6.31366 -23.7155 3.26291
RightFoot  0.917003 -0.249713 2.41242
RightToes  -3.13588e-008 1.75238e-005 3.56266e-009
Spine  4.01447 1.37513 0.0339267
Spine1  -11.8935 1.38142 -0.343642
HEad  -6.84766 -5.07755 5.97362
LeftShoulder1  0.00942784 3.42918 -4.85008
LeftArm  -63.7702 -31.3239 6.90808
LeftForeArm  -2.47594 -1.8963 4.21839
LeftHand  -0.260594 2.33089 9.67069
RightShoulder  -0.113652 -4.49913 3.19804
RightArm  -88.1055 29.5627 -5.49583
RightForeArm  -7.4017 27.9698 6.42333
RightHand  -0.783849 7.09943 -7.61984
LeftUpLeg  1.38369 1.01826 3.38983
LeftLeg  -5.14079 10.7967 -1.11505
LeftFoot  1.45287 0.421884 -3.82893
LeftToes  4.76812e-008 1.47286e-008 1.3089e-009
411
root  -4.17467 40.9891 0.342399 3.32025 -85.2121 0.144226
RightUpLeg  2.85492 -1.18746 -0.817873
RightLeg  -6.62766 -23.8204 3.3926
RightFoot  1.0176 -0.248093 2.38285
RightToes  -3.13588e-008 1.75238e-005 3.56266e-009
Spine  3.90564 1.31216 0.279032
Spine1  -11.3563 1.32737 -0.45773
HEad  -8.00163 -4.40189 6.43374
LeftShoulder1  0.0408956 3.20669 -6.00555
LeftArm  -65.8106 -30.53 5.96785
LeftForeArm  0.674876 -4.70841 5.70949
LeftHand  -0.326508 1.57996 9.81276
RightShoulder  -0.134293 -4.69574 3.07559
RightArm  -87.7739 29.4012 -5.05219
RightForeArm  -7.73023 28.3798 6.54315
RightHand  -0.724375 6.905 -7.17117
LeftUpLeg  1.29568 1.0625 3.43905
LeftLeg  -5.04897 10.7155 -1.08499
LeftFoot  1.41664 0.421319 -3.78127
LeftToes  4.76812e-008 1.47286e-008 1.3089e-009
412
root  -4.15323 40.9949 0.348297 3.38358 -84.9427 0.243408
RightUpLeg  2.70003 -1.10746 -0.791701
RightLeg  -6.72498 -24.1716 3.39835
RightFoot  1.13102 -0.254253 2.47378
RightToes  -3.13588e-008 1.75238e-005 3.56266e-009
Spine  4.18845 1.13431 0.919626
Spine1  -11.7137 1.23113 -1.5095
HEad  -8.03946 -4.1903 6.67893
LeftShoulder1  0.0812163 2.91942 -6.14493
LeftArm  -65.1789 -29.0473 5.94032
LeftForeArm  0.864899 -8.52821 4.29788
LeftHand  -0.376723 1.41269 10.9921
RightShoulder  -0.141533 -4.77736 2.90749
RightArm  -87.2963 29.0692 -4.75084
RightForeArm  -6.98963 28.2115 6.46261
RightHand  -0.716927 6.52833 -7.29393
LeftUpLeg  1.04602 1.00902 3.43072
LeftLeg  -5.05327 10.4959 -1.07924
LeftFoot  1.48355 0.426363 -3.84182
LeftToes  4.76812e-008 1.47286e-008 1.3089e-009
413
root  -4.13391 41 0.343099 2.66302 -84.3764 1.13144
RightUpLeg  2.52615 -1.17525 -0.872467
RightLeg  -6.70268 -24.6442 3.47164
RightFoot  1.14644 -0.251099 2.42006
RightToes  -3.13588e-008 1.75238e-005 3.56266e-009
Spine  4.22269 0.88606 0.914061
Spine1  -11.6656 1.00592 -1.71169
HEad  -8.14998 -5.12041 7.57273
LeftShoulder1  0.0528882 3.11624 -5.90739
LeftArm  -71.0552 -28.4091 4.72471
LeftForeArm  5.1248 -14.2811 2.75693
LeftHand  -0.435139 0.827307 10.9498
RightShoulder  -0.125729 -4.62707 2.98076
RightArm  -86.5162 28.3074 -4.98359
RightForeArm  -6.10819 30.4949 6.98594
RightHand  -0.886176 7.43253 -8.36018
LeftUpLeg  0.680232 0.880823 3.33457
LeftLeg  -4.9301 10.1056 -1.00861
LeftFoot  1.58244 0.422141 -3.76224
LeftToes  4.76812e-008 1.47286e-008 1.3089e-009
414
root  -4.13344 41.0013 0.34035 2.31958 -84.0798 1.51453
RightUpLeg  2.56683 -1.20843 -0.905383
RightLeg  -6.82787 -24.8911 3.55392
RightFoot  1.16906 -0.248127 2.369
RightToes  -3.13588e-008 1.75238e-005 3.56266e-009
Spine  4.46029 0.863625 0.803201
Spine1  -11.9031 0.972404 -1.5834
HEad  -8.24493 -5.54452 7.6759
LeftShoulder1  0.0825651 2.91413 -6.11649
LeftArm  -81.3109 -26.2898 3.26534
LeftForeArm  15.2148 -23.2957 -3.31023
LeftHand  -0.589737 0.608267 14.4521
RightShoulder  -0.129674 -4.64218 3.22487
RightArm  -84.9067 27.0298 -4.81546
RightForeArm  -4.76454 36.1989 8.50346
RightHand  -0.885592 7.5795 -8.25038
LeftUpLeg  0.647157 0.804723 3.27034
LeftLeg  -5.04564 9.92431 -0.97422
LeftFoot  1.6773 0.420847 -3.73208
LeftToes  4.76812e-008 1.47286e-008 1.3089e-009
415
root  -4.12537 41.0018 0.339139 2.90958 -83.9531 1.00317
RightUpLeg  2.48271 -1.15593 -0.841529
RightLeg  -6.84204 -25.0771 3.57916
RightFoot  1.17266 -0.252217 2.42737
RightToes  -3.13588e-008 1.75238e-005 3.56266e-009
Spine  4.92104 0.891715 0.80784
Spine1  -12.2997 0.994944 -1.56677
HEad  -8.17138 -6.23462 7.68692
LeftShoulder1  0.17274 2.31731 -6.95567
LeftArm  -78.5678 -22.9173 2.47469
LeftForeArm  14.7747 -35.6911 -7.29099
LeftHand  -0.670722 -1.13586 12.1042
RightShoulder  -0.119411 -4.49935 3.80304
RightArm  -82.9643 24.4123 -4.28095
RightForeArm  -4.59624 45.4804 11.7112
RightHand  -0.692909 7.62816 -6.52732
LeftUpLeg  0.574937 0.801959 3.31907
LeftLeg  -5.1434 9.78762 -0.957077
LeftFoot  1.72656 0.422093 -3.74494
LeftToes  4.76812e-008 1.47286e-008 1.3089e-009
416
root  -4.12203 41.0021 0.337701 3.25827 -83.8696 0.848053
RightUpLeg  2.32967 -1.12983 -0.826181
RightLeg  -6.98601 -25.1699 3.67317
RightFoot  1.22415 -0.246406 2.33202
RightToes  -3.13588e-008 1.75238e-005 3.56266e-009
Spine  5.17724 0.708027 0.638354
Spine1  -12.2433 0.807234 -1.43962
HEad  -8.97861 -6.09718 8.22312
LeftShoulder1  0.123465 2.70667 -7.95363
LeftArm  -77.8045 -19.8933 1.19977
LeftForeArm  19.4942 -50.4286 -12.2212
LeftHand  -0.738938 -2.56824 10.9687
RightShoulder  -0.160454 -4.77227 4.61318
RightArm  -81.1867 21.9557 -2.77542
RightForeArm  -0.54491 56.8258 17.6723
RightHand  -0.800951 8.19624 -7.19539
LeftUpLeg  0.320069 0.778987 3.33525
LeftLeg  -5.09515 9.72401 -0.93573
LeftFoot  1.71088 0.426241 -3.80611
LeftToes  4.76812e-008 1.47286e-008 1.3089e-009
417
root  -4.12554 41.0023 0.337614 3.24661 -84.0323 1.12823
RightUpLeg  2.04569 -1.04229 -0.815465
RightLeg  -7.02725 -25.1 3.62748
RightFoot  1.28863 -0.247707 2.34691
RightToes  -3.13588e-008 1.75238e-005 3.56266e-009
Spine  5.47163 0.714219 0.080894
Spine1  -12.3029 0.767005 -0.812494
HEad  -9.77806 -5.30833 8.45126
LeftShoulder1  0.0995747 2.90028 -8.91904
LeftArm  -78.0763 -16.2111 -0.836743
LeftForeArm  27.7599 -66.1998 -23.8126
LeftHand  -0.778005 -2.58126 11.4991
RightShoulder  -0.167504 -4.74444 5.49767
RightArm  -80.9813 18.8618 -1.27083
RightForeArm  11.2542 69.2333 31.4063
RightHand  -0.882244 9.06688 -7.45274
LeftUpLeg  0.0887716 0.739739 3.30854
LeftLeg  -5.16792 9.93999 -0.989487
LeftFoot  1.77585 0.423525 -3.7631
LeftToes  4.76812e-008 1.47286e-008 1.3089e-009
418
root  -4.12313 41.0022 0.34166 3.67633 -84.1791 0.95163
RightUpLeg  1.82433 -0.979848 -0.813107
RightLeg  -7.19526 -25.0191 3.68683
RightFoot  1.3815 -0.247615 2.3401
RightToes  -3.13588e-008 1.75238e-005 3.56266e-009
Spine  5.72191 0.843628 -0.196705
Spine1  -12.2983 0.868516 -0.48051
HEad  -10.5551 -6.11619 8.40947
LeftShoulder1  0.141422 2.69322 -10.1903
LeftArm  -78.6802 -12.622 -1.63903
LeftForeArm  60.7374 -78.2488 -59.718
LeftHand  -0.997284 -3.89325 12.7244
RightShoulder  -0.183786 -4.77229 6.63914
RightArm  -81.1262 15.1918 -0.7236
RightForeArm  47.8507 78.13 69.0561
RightHand  -0.998367 9.97729 -7.91128
LeftUpLeg  -0.193823 0.720846 3.3228
LeftLeg  -5.12561 10.129 -1.01108
LeftFoot  1.77346 0.421603 -3.73486
LeftToes  4.76812e-008 1.47286e-008 1.3089e-009
419
root  -4.12913 41.0021 0.352141 3.74722 -84.3213 0.943939
RightUpLeg  1.75114 -0.976846 -0.826477
RightLeg  -7.19149 -24.9081 3.67133
RightFoot  1.40916 -0.246869 2.32309
RightToes  -3.13588e-008 1.75238e-005 3.56266e-009
Spine  5.89598 0.857629 -0.499137
Spine1  -11.9362 0.844958 0.012385
HEad  -11.4617 -5.93041 8.1846
LeftShoulder1  0.130887 2.8027 -11.3496
LeftArm  -80.9562 -9.34401 -1.8916
LeftForeArm  130.216 -76.4594 -132.007
LeftHand  -1.01914 -3.62076 13.3453
RightShoulder  -0.173127 -4.59212 8.05964
RightArm  -82.9177 12.3973 -0.795204
RightForeArm  106.348 76.1226 127.665
RightHand  -1.17438 9.80742 -9.33019
LeftUpLeg  -0.196251 0.705537 3.30205
LeftLeg  -5.19415 10.2606 -1.03181
LeftFoot  1.7884 0.417388 -3.67294
LeftToes  4.76812e-008 1.47286e-008 1.3089e-009
420
root  -4.12256 41.0019 0.357574 3.97101 -84.4112 0.744751
RightUpLeg  1.70513 -0.954427 -0.81819
RightLeg  -7.19378 -24.8161 3.65964
RightFoot  1.46351 -0.246063 2.30509
RightToes  -3.13588e-008 1.75238e-005 3.56266e-009
Spine  5.98314 0.848514 -1.13003
Spine1  -11.423 0.750341 0.992764
HEad  -12.7834 -4.89738 7.37565
LeftShoulder1  0.122295 2.86815 -12.2748
LeftArm  -84.6433 -7.04756 -1.65635
LeftForeArm  152.612 -65.404 -156.901
LeftHand  -1.07117 -3.74249 13.8424
RightShoulder  -0.200126 -4.67295 9.44377
RightArm  -85.481 10.7821 -1.00079
RightForeArm  126.934 67.4785 151.627
RightHand  -1.13918 10.1579 -8.8685
LeftUpLeg  -0.201483 0.713117 3.31383
LeftLeg  -5.23295 10.3364 -1.04825
LeftFoot  1.80919 0.418428 -3.69452
LeftToes  4.76812e-008 1.47286e-008 1.3089e-009
